<svg version="1.1" id="svg2" viewBox="0 0 219 226" xmlns="http://www.w3.org/2000/svg" xmlns:svg="http://www.w3.org/2000/svg">
  <g id="g8" transform="matrix(1.3333333,0,0,-1.3333333,0,242.96)">
    <g id="g10" transform="scale(0.1)">
      <path d="M 1638.91,1002.77 C 1638.91,550.199 1272.03,183.32 819.453,183.32 366.883,183.32 0,550.199 0,1002.77 c 0,452.58 366.883,819.46 819.453,819.46 452.577,0 819.457,-366.88 819.457,-819.46" style="fill:#182e4a;fill-opacity:1;fill-rule:evenodd;stroke:none" id="path34" />
      <path d="m 785.758,1333.81 c 65.965,-43.33 164.437,-4.34 162.172,86.78 -0.004,0.03 -0.004,0.06 -0.008,0.09 0,0.04 -0.004,0.07 -0.008,0.11 -0.004,0.03 -0.004,0.06 -0.008,0.09 0,0.04 -0.008,0.07 -0.008,0.1 -0.003,0.04 -0.003,0.07 -0.007,0.11 -0.004,0.03 -0.004,0.06 -0.008,0.09 0,0.04 -0.008,0.07 -0.008,0.1 -0.004,0.04 -0.004,0.07 -0.008,0.1 -10.722,75.73 -77.961,97.93 -122.281,89.5 -89.703,-17.05 -114.641,-127.93 -39.828,-177.07" style="fill:#ffffff;fill-opacity:1;fill-rule:nonzero;stroke:none" id="path36" />
      <path d="m 742.863,595 c -0.004,-0.02 -0.004,-0.051 -0.008,-0.078 0,-0.024 -0.003,-0.051 -0.007,-0.07 0,-0.032 -0.004,-0.051 -0.004,-0.082 -0.004,-0.032 -0.004,-0.051 -0.008,-0.079 0,-0.019 0,-0.05 -0.008,-0.07 0,-0.031 0,-0.051 -0.004,-0.082 0,-0.019 -0.004,-0.051 -0.008,-0.078 0,-0.02 -0.003,-0.051 -0.003,-0.082 -1.872,-96.719 115.746,-131.18 176.628,-72.899 23.258,22.27 26.633,46.942 28.254,58.801 1.809,77.629 -64.574,103.539 -106.84,101.641 C 808.68,680.469 751.836,660.539 742.863,595" style="fill:#ffffff;fill-opacity:1;fill-rule:nonzero;stroke:none" id="path38" />
      <path d="m 995.172,697.148 c 74.448,-64.136 192.058,-13.707 196.628,84.313 -0.85,87.262 -72.97,120.93 -123.9,116.965 C 962.855,890.254 917.316,764.219 995.172,697.148" style="fill:#ffffff;fill-opacity:1;fill-rule:nonzero;stroke:none" id="path40" />
      <path d="m 1241.23,894.992 c 75.58,-63.383 198.67,-20.867 204.95,99.852 -0.03,77.986 -63.5,137.216 -138.59,129.336 -110.04,-11.54 -152.21,-157.192 -66.36,-229.188" style="fill:#ffffff;fill-opacity:1;fill-rule:nonzero;stroke:none" id="path42" />
      <path d="m 955.797,1208.67 c 0,-0.03 0.004,-0.05 0.004,-0.08 0.004,-0.03 0.004,-0.06 0.004,-0.08 0,-0.03 0.004,-0.06 0.004,-0.08 0,-0.03 0,-0.06 0.004,-0.08 0,-0.03 0,-0.06 0,-0.08 0.003,-0.03 0.003,-0.06 0.003,-0.09 0,-0.02 0,-0.05 0,-0.08 0.004,-0.03 0.004,-0.05 0.004,-0.08 10.879,-118.09 149.14,-148.2 210.47,-71 23.59,29.69 24.1,60.17 24.34,74.82 0,0.01 0,0.03 0,0.04 0,0.01 0,0.03 0,0.04 0,0.02 0,0.03 0,0.04 0,0.02 0,0.03 0,0.05 0,0.01 -0.01,0.02 -0.01,0.04 0,0.01 0,0.02 0,0.04 0,0.01 0,0.03 0,0.04 0,0.01 0,0.03 0,0.04 -7.84,89.56 -82.89,121.46 -133.67,115.5 -34.46,-4.04 -99.942,-34.12 -101.153,-119" style="fill:#ffffff;fill-opacity:1;fill-rule:nonzero;stroke:none" id="path44" />
      <path d="m 517.941,697.148 c 74.454,-64.136 192.063,-13.707 196.625,84.313 -0.847,87.262 -72.961,120.93 -123.89,116.965 -105.047,-8.172 -150.59,-134.207 -72.735,-201.278" style="fill:#6aacd8;fill-opacity:1;fill-rule:nonzero;stroke:none" id="path46" />
      <path d="m 764.004,894.992 c 75.574,-63.383 198.668,-20.867 204.945,99.852 -0.031,77.986 -63.496,137.216 -138.59,129.336 C 720.324,1112.64 678.152,966.988 764.004,894.992" style="fill:#6aacd8;fill-opacity:1;fill-rule:nonzero;stroke:none" id="path48" />
      <path d="m 478.57,1208.67 c 0,-0.03 0,-0.05 0,-0.08 0.004,-0.03 0.004,-0.06 0.004,-0.08 0,-0.03 0.004,-0.06 0.004,-0.08 0.004,-0.03 0.004,-0.06 0.004,-0.08 0,-0.03 0,-0.06 0.004,-0.08 0,-0.03 0,-0.06 0,-0.09 0.004,-0.02 0.004,-0.05 0.004,-0.08 0.004,-0.03 0.004,-0.05 0.004,-0.08 10.875,-118.09 149.136,-148.2 210.469,-71 23.593,29.69 24.097,60.17 24.339,74.82 0,0.01 0,0.03 0,0.04 0,0.01 0,0.03 -0.004,0.04 0,0.02 0,0.03 0,0.04 0,0.02 0,0.03 0,0.05 0,0.01 -0.003,0.02 -0.003,0.04 0,0.01 0,0.02 0,0.04 0,0.01 0,0.03 0,0.04 0,0.01 0,0.03 -0.004,0.04 -7.84,89.56 -82.887,121.46 -133.672,115.5 -34.457,-4.04 -99.942,-34.12 -101.149,-119" style="fill:#6aacd8;fill-opacity:1;fill-rule:nonzero;stroke:none" id="path50" />
      <path d="m 278.949,894.992 c 75.578,-63.383 198.672,-20.867 204.949,99.852 -0.031,77.986 -63.496,137.216 -138.593,129.336 C 235.273,1112.64 193.102,966.988 278.949,894.992" style="fill:#3ab58c;fill-opacity:1;fill-rule:nonzero;stroke:none" id="path52" />
    </g>
  </g>
</svg>