<svg width="16" height="16" viewBox="0 0 16 16" fill="none" 
    xmlns="http://www.w3.org/2000/svg">
    <path style=" stroke:none;fill-rule:nonzero;fill:rgb(0%,0%,0%);fill-opacity:1;" d="M 14.789062 11.207031 L 14.789062 14.761719 C 14.789062 15.359375 14.304688 15.839844 13.710938 15.839844 L 2.289062 15.839844 C 1.691406 15.839844 1.210938 15.359375 1.210938 14.761719 L 1.210938 11.207031 C 1.210938 10.609375 1.691406 10.128906 2.289062 10.128906 C 2.882812 10.128906 3.367188 10.609375 3.367188 11.207031 L 3.367188 13.683594 L 12.632812 13.683594 L 12.632812 11.207031 C 12.632812 10.609375 13.117188 10.128906 13.710938 10.128906 C 14.308594 10.128906 14.789062 10.609375 14.789062 11.207031 Z M 7.238281 12.128906 C 7.449219 12.339844 7.726562 12.445312 8 12.445312 C 8.277344 12.445312 8.550781 12.339844 8.761719 12.128906 L 11.996094 8.898438 C 12.417969 8.476562 12.417969 7.796875 11.996094 7.375 C 11.574219 6.953125 10.890625 6.953125 10.472656 7.375 L 9.078125 8.769531 L 9.078125 1.238281 C 9.078125 0.644531 8.597656 0.160156 8 0.160156 C 7.40625 0.160156 6.921875 0.644531 6.921875 1.238281 L 6.921875 8.769531 L 5.53125 7.375 C 5.109375 6.953125 4.425781 6.953125 4.007812 7.375 C 3.585938 7.796875 3.585938 8.476562 4.007812 8.898438 Z M 7.238281 12.128906 "/>
</svg>
